<svg xmlns="http://www.w3.org/2000/svg">
<g transform="translate(-8.2259 -105.66)">
<path d="m43.766 276.01c-0.70114-0.70115-0.89342-1.268-1.1996-3.5368-0.09166-0.6791-0.56897-2.3544-1.0607-3.723-0.49173-1.3685-1.0801-3.6149-1.3075-4.9919-0.37381-2.2635-0.34835-2.6339 0.26549-3.8618l0.67895-1.3581-1.5434-4.5861c-0.84886-2.5224-2.0648-5.8561-2.702-7.4083-1.6367-3.9867-2.1175-6.2372-2.1102-9.8778 0.0054-2.6967 0.15004-3.487 0.96037-5.2461 1.0633-2.3082 1.1897-2.7958 0.46959-1.8109-0.47262 0.64636-0.48954 0.64585-0.69218-0.0208-0.42435-1.3959-0.89937-5.1413-0.71349-5.6256 0.1058-0.27572-0.6074-2.134-1.5849-4.1295-2.0343-4.153-3.603-8.6492-4.5275-12.977-0.83874-3.9263-0.86601-12.31-0.04952-15.224 0.69197-2.4693 0.5038-3.6966-0.60965-3.976-0.7693-0.19308-0.81673-0.34244-0.65348-2.0578 0.42094-4.423 0.54964-4.9319 1.4608-5.7763 0.8398-0.7783 0.87234-0.91606 0.42736-1.8092-0.2649-0.53175-0.58078-2.4749-0.70194-4.3182-0.12116-1.8433-0.43594-3.8558-0.6995-4.4724-0.39984-0.93534-0.40307-1.5898-0.0195-3.9518 0.44106-2.716 0.42833-2.8816-0.31384-4.0825-0.42544-0.6884-0.90088-1.2516-1.0565-1.2516-0.15564 0-0.35815 1.5478-0.45003 3.4396-0.1259 2.5922-0.43766 4.2436-1.2655 6.7032-1.5615 4.6394-2.0591 7.7048-1.3771 8.4833 1.5916 1.8169 2.2565 5.4945 1.1583 6.406-0.4418 0.36665-0.41087 0.63003 0.2285 1.946 0.48498 0.99823 0.64219 1.7473 0.45684 2.1768-0.2709 0.62772-0.35537 0.93394-0.47345 1.7165-0.02956 0.19586-0.37074 0.55409-0.75821 0.79607-0.58751 0.3669-0.96713 0.31649-2.2863-0.30362-2.1024-0.98822-2.9644-2.4616-3.3258-5.6845-0.34212-3.0507-0.10103-25.788 0.28449-26.83 0.14566-0.39375 0.12828-1.5867-0.03863-2.6511-0.18374-1.1717-0.16914-2.3693 0.03703-3.0356 0.18727-0.60521 0.43813-1.9735 0.55745-3.0407 0.34495-3.085 0.92208-5.3389 1.8321-7.155 0.87558-1.7474 1.2255-1.9786 4.8789-3.2246 5.092-1.7366 7.8064-2.7822 8.2017-3.1592 0.75724-0.72234-0.07164-5.7548-1.3213-8.0217-1.245-2.2586-1.321-3.3393-0.31052-4.4149 0.70557-0.75105 0.72438-0.9284 0.32369-3.052-0.53664-2.8441-0.11025-4.6198 1.478-6.1553 1.3576-1.3125 4.6963-2.9153 6.6064-3.1715 2.6985-0.36195 6.4336 1.527 7.6427 3.8653 0.74026 1.4315 1.0203 5.6942 0.52554 8.0009-0.28516 1.3297-0.29401 2.016-0.03009 2.3341 0.60711 0.73153 0.02458 2.1372-1.4517 3.5031-1.5443 1.4289-1.5051 1.3124-1.0253 3.0396 0.3288 1.1836 0.54283 1.3348 3.4376 2.4285 8.5073 3.2142 14.2 7.2724 14.2 10.123 0 0.45748 1.1332 4.2834 2.5182 8.5019l2.5182 7.6702 0.15264 4.7625c0.13193 4.1166 0.06551 4.9278-0.48974 5.9814-0.59205 1.1234-0.86345 1.2683-3.4646 1.8487-1.5522 0.34639-3.1549 0.55506-3.5616 0.46371-0.72718-0.16337-0.73659-0.0922-0.57218 4.3249 0.12803 3.4397 0.32174 4.7974 0.82754 5.7998 0.85757 1.6997 0.83484 2.1447-0.21968 4.3004-0.85101 1.7397-0.86702 1.9038-0.48512 4.974 0.47709 3.8354 0.17678 11.421-0.57956 14.64-0.29634 1.2612-0.78744 4.1715-1.0913 6.4674-0.42638 3.2211-0.74699 4.4608-1.4041 5.4291-1.1435 1.6851-1.0751 2.3131 0.37218 3.417 1.8406 1.4039 2.0585 2.7175 1.8793 11.328-0.14658 7.0423-0.19959 7.5121-1.0548 9.3486-1.7836 3.8301-4.25 6.339-6.2348 6.3421-0.50106 7.9e-4 -1.3832-0.54666-2.2049-1.3683l-1.3696-1.3696v-2.9761c0-3.3458 0.70197-6.2001 1.7604-7.1579 1.1593-1.0491 0.87934-2.1874-1.0598-4.3091-0.97288-1.0645-2.1902-2.6543-2.7051-3.533l-0.93623-1.5976-0.49046 1.896c-0.52427 2.0267-0.44079 5.162 0.22424 8.4224 0.21767 1.0672 0.40797 5.0165 0.42289 8.7763l0.02713 6.836 1.6116 1.9786c2.9544 3.6272 3.5358 6.3026 2.0269 9.3272-0.66591 1.3348-0.66083 3.04 0.01172 3.9292 0.71906 0.95068 0.68286 4.3908-0.05732 5.4476-1.2475 1.7811-5.4662 2.4664-6.8241 1.1085z" fill="#008080" stroke-width=".35278"/>
<g>
<g transform="scale(.68758 1.4544)" fill="#247786" fill-opacity=".84545" stroke-width=".81079" aria-label="NY">
<path d="m106.16 188.1h43.432v-12.142h-14.166v-65.693c0.15567-3.4248-0.62268-8.8732-0.62268-8.8732h0.46701s1.7124 4.8258 3.7361 7.9392l54.018 78.77h15.256v-97.917h13.855v-11.987h-43.432v11.987h14.01v65.849c0 3.4248 0.77836 8.8732 0.77836 8.8732h-0.46701s-1.8681-4.8258-3.7361-7.9392l-54.018-78.77h-29.11v11.987h13.699v85.775h-13.699z"/>
<path d="m257.3 188.1h43.277v-12.142h-13.855v-34.403l30.823-51.371h10.43v-11.987h-37.517v11.987h11.364l-20.393 34.559c-1.401 2.3351-2.3351 4.6701-2.3351 4.6701h-0.31134s-0.93403-2.3351-2.1794-4.6701l-20.393-34.559h11.52v-11.987h-37.828v11.987h10.43l30.823 51.371v34.403h-13.855z"/>
</g>
<g fill="#247786" fill-opacity=".84706" stroke-width=".26458" aria-label="CITY">
<path d="m236.23 138.26c0 10.465 7.7724 18.745 18.542 18.745 4.9784 0 13.97-1.778 13.97-7.0612v-4.3688h-4.7244v2.794c0 3.302-6.4008 4.2164-8.9408 4.2164-7.8232 0-13.614-6.0452-13.614-14.529 0-8.128 5.6388-13.767 13.31-13.767 3.302 0 8.7376 1.1684 8.7376 4.318v2.794h4.7244v-4.3688c0-5.5372-9.3472-7.112-13.665-7.112-10.363 0-18.339 7.8232-18.339 18.339z"/>
<path d="m274.23 156.39h14.072v-3.9624h-4.5212v-27.991h4.5212v-3.9116h-14.072v3.9116h4.4704v27.991h-4.4704z"/>
<path d="m300.79 156.39h14.122v-3.9624h-4.5212v-27.737h8.4328v5.588h4.4196v-9.7536h-30.785v9.7536h4.4196v-5.588h8.4328v27.737h-4.5212z"/>
<path d="m334.17 156.39h14.122v-3.9624h-4.5212v-11.227l10.058-16.764h3.4036v-3.9116h-12.243v3.9116h3.7084l-6.6548 11.278c-0.4572 0.762-0.762 1.524-0.762 1.524h-0.1016s-0.3048-0.762-0.7112-1.524l-6.6548-11.278h3.7592v-3.9116h-12.344v3.9116h3.4036l10.058 16.764v11.227h-4.5212z"/>
</g>
<g fill="#003770" stroke-width=".26458" aria-label="Marathon">
<path d="m236.23 211.58h13.818v-3.9624h-4.318l1.6256-21.438c0.0508-1.1176-0.1524-2.9464-0.1524-2.9464h0.1524s0.4064 1.7272 0.8128 2.7432l8.2296 18.847h4.4704l8.2296-18.847c0.4064-1.016 0.8128-2.7432 0.8128-2.7432h0.1524s-0.2032 1.8288-0.1524 2.9464l1.6256 21.438h-4.318v3.9624h13.818v-3.9624h-4.4704l-2.286-27.991h4.572v-3.9116h-10.16l-9.1948 21.844c-0.5588 1.4732-0.8128 2.5908-0.8128 2.5908h-0.1016s-0.254-1.1176-0.8128-2.5908l-9.1948-21.844h-10.16v3.9116h4.572l-2.286 27.991h-4.4704z"/>
<path d="m284.69 204.41c0 5.2832 4.2672 7.7724 8.5344 7.7724 6.2484 0 8.4836-5.4356 8.4836-5.4356h0.1016s-0.2032 0.6604-0.2032 1.6764v0.3556c0 1.6764 0.9144 2.794 3.2004 2.794h5.1308v-3.81h-2.5908c-0.7112 0-1.1176-0.3556-1.1176-1.1176v-11.481c0-6.5024-3.4544-9.906-10.008-9.906-5.9944 0-9.7536 3.048-9.7536 3.048l1.9812 3.5052s3.302-2.4892 7.366-2.4892c3.1496 0 5.4864 1.4224 5.4864 5.4864v0.9652h-1.6256c-4.2672 0-14.986 0.5588-14.986 8.636zm4.9784-0.4064c0-4.9276 8.0772-5.0292 10.414-5.0292h1.27v1.0668c0 3.8608-2.6924 8.3312-7.0612 8.3312-2.9464 0-4.6228-2.0828-4.6228-4.3688z"/>
<path d="m313.73 211.58h12.598v-3.81h-3.81v-6.8072c0-5.0292 2.3368-10.566 7.8232-10.566 0.8128 0 1.4224 0.1524 1.4224 0.1524v-4.8768s-0.6096-0.1016-1.27-0.1016c-3.9624 0-6.9596 2.9464-8.128 6.7056h-0.1016s0.1016-0.762 0.1016-1.778v-1.6256c0-2.0828-1.0668-2.9972-3.302-2.9972h-5.7912v3.81h3.2004c0.7112 0 1.1176 0.3556 1.1176 1.1176v16.967h-3.8608z"/>
<path d="m334.4 204.41c0 5.2832 4.2672 7.7724 8.5344 7.7724 6.2484 0 8.4836-5.4356 8.4836-5.4356h0.1016s-0.2032 0.6604-0.2032 1.6764v0.3556c0 1.6764 0.9144 2.794 3.2004 2.794h5.1308v-3.81h-2.5908c-0.7112 0-1.1176-0.3556-1.1176-1.1176v-11.481c0-6.5024-3.4544-9.906-10.008-9.906-5.9944 0-9.7536 3.048-9.7536 3.048l1.9812 3.5052s3.302-2.4892 7.366-2.4892c3.1496 0 5.4864 1.4224 5.4864 5.4864v0.9652h-1.6256c-4.2672 0-14.986 0.5588-14.986 8.636zm4.9784-0.4064c0-4.9276 8.0772-5.0292 10.414-5.0292h1.27v1.0668c0 3.8608-2.6924 8.3312-7.0612 8.3312-2.9464 0-4.6228-2.0828-4.6228-4.3688z"/>
<path d="m365.73 202.18c0 8.5852 6.5532 9.6012 9.8044 9.6012 1.0668 0 1.778-0.1016 1.778-0.1016v-4.1148s-0.4572 0.0508-1.1684 0.0508c-1.9304 0-5.4864-0.6604-5.4864-5.8928v-12.04h6.1468v-3.81h-6.1468v-7.0612h-4.826v7.0612h-4.4196v3.81h4.318z"/>
<path d="m380.38 211.58h13.005v-3.81h-4.064v-8.2296c0-5.4864 3.556-9.7536 8.5852-9.7536 4.1148 0 4.8768 2.8448 4.8768 6.4516v15.342h8.9408v-3.81h-4.0132v-12.649c0-6.5532-2.794-9.8552-8.8392-9.8552-5.1308 0-8.4836 3.4036-9.6012 5.8928h-0.1016s0.1524-0.9144 0.1524-2.1336v-13.31h-9.1948v3.81h4.318v28.245h-4.064z"/>
<path d="m415.02 198.67c0 7.8232 6.1976 13.513 13.868 13.513s13.868-5.6896 13.868-13.513c0-7.7724-6.1976-13.411-13.868-13.411s-13.868 5.6388-13.868 13.411zm5.0292 0c0-5.334 3.9624-9.144 8.8392-9.144 4.826 0 8.8392 3.81 8.8392 9.144 0 5.3848-4.0132 9.2456-8.8392 9.2456-4.8768 0-8.8392-3.8608-8.8392-9.2456z"/>
<path d="m447.08 211.58h13.005v-3.81h-4.064v-8.128c0-5.1308 3.4036-9.8552 8.5852-9.8552 4.1148 0 4.826 2.8448 4.826 6.4516v15.342h8.9916v-3.81h-4.064v-12.649c0-6.5532-2.6416-9.8552-8.5344-9.8552-6.5024 0-9.4996 4.8768-10.008 6.2484h-0.1016s0.1524-0.6604 0.1524-1.4732v-1.3208c0-1.8796-1.016-2.8448-3.2512-2.8448h-5.7912v3.81h3.1496c0.7112 0 1.1176 0.3556 1.1176 1.1176v16.967h-4.0132z"/>
</g>
<g fill="#003770" stroke-width=".26458" aria-label="2018">
<path d="m236.48 269.79h24.282v-8.9408h-4.4196v4.7752h-14.63c0.1016-8.5852 17.628-10.465 17.628-21.996 0-6.1976-4.7752-10.312-11.328-10.312-8.128 0-11.379 6.8072-11.379 6.8072l3.556 2.4384s2.6924-4.7752 7.4168-4.7752c3.81 0 6.4516 2.3368 6.4516 6.0452 0 8.8392-17.831 10.414-17.831 23.216 0 0.8636 0.1016 1.778 0.254 2.7432z"/>
<path d="m279.25 270.4c9.5504 0 12.7-8.2296 12.7-18.593 0-10.312-3.1496-18.491-12.7-18.491-9.6012 0-12.7 8.1788-12.7 18.491 0 10.363 3.0988 18.593 12.7 18.593zm0-4.5212c-5.8928 0-7.5184-6.1468-7.5184-14.072 0-7.8232 1.6256-14.021 7.5184-14.021 5.842 0 7.5184 6.1976 7.5184 14.021 0 7.9248-1.6764 14.072-7.5184 14.072z"/>
<path d="m297.55 269.79h20.625v-4.1656h-7.8232v-31.699h-4.4704l-8.5852 8.3312 3.048 3.1496 3.3528-3.302c1.3208-1.27 1.7272-2.032 1.7272-2.032h0.1016s-0.0508 1.0668-0.0508 2.1844v23.368h-7.9248z"/>
<path d="m322.01 259.68c0 6.1468 5.3848 10.719 12.548 10.719 7.4676 0 12.294-4.9784 12.294-10.465 0-3.6576-2.1844-6.0452-5.1308-7.7724 0.6604-0.6604 4.2672-4.4704 4.2672-9.398 0-5.6896-4.6736-9.4488-11.379-9.4488-7.5184 0-11.176 4.6228-11.176 9.398 0 3.302 1.8288 5.5372 4.3688 7.2136-1.016 0.7112-5.7912 4.0132-5.7912 9.7536zm6.4008-16.916c0-2.794 2.1844-5.08 6.1976-5.08 3.8608 0 6.4516 2.0828 6.4516 5.6388s-2.54 6.35-3.0988 7.0104c-4.7752-2.0828-9.5504-3.4544-9.5504-7.5692zm-1.3208 16.408c0-4.0132 3.2512-6.35 4.2672-7.112 5.588 2.54 10.363 3.7084 10.363 7.874 0 3.5052-3.4544 6.0452-7.2136 6.0452-3.9116 0-7.4168-2.6924-7.4168-6.8072z"/>
</g>
</g>
</g>
</svg>
